<mxfile host="Electron" modified="2023-08-08T13:36:48.926Z" agent="Mozilla/5.0 (Windows NT 10.0; Win64; x64) AppleWebKit/537.36 (KHTML, like Gecko) draw.io/21.6.5 Chrome/114.0.5735.243 Electron/25.3.1 Safari/537.36" etag="CLKlCgacfoq-wX-RelcI" version="21.6.5" type="device">
  <diagram name="Page-1" id="lUlkhbU7zunDpsc1Ev00">
    <mxGraphModel dx="880" dy="511" grid="1" gridSize="10" guides="1" tooltips="1" connect="1" arrows="1" fold="1" page="1" pageScale="1" pageWidth="1169" pageHeight="827" math="0" shadow="0">
      <root>
        <mxCell id="0" />
        <mxCell id="1" parent="0" />
        <mxCell id="sTpfeI2xTtXxhbUC93Zj-1" value="&lt;b&gt;CallQueue&lt;/b&gt;" style="swimlane;fontStyle=0;align=center;verticalAlign=top;childLayout=stackLayout;horizontal=1;startSize=30;horizontalStack=0;resizeParent=1;resizeParentMax=0;resizeLast=0;collapsible=0;marginBottom=0;html=1;whiteSpace=wrap;" vertex="1" parent="1">
          <mxGeometry width="140" height="150" as="geometry" />
        </mxCell>
        <mxCell id="sTpfeI2xTtXxhbUC93Zj-2" value="queue: List" style="text;html=1;strokeColor=none;fillColor=none;align=left;verticalAlign=middle;spacingLeft=4;spacingRight=4;overflow=hidden;rotatable=0;points=[[0,0.5],[1,0.5]];portConstraint=eastwest;whiteSpace=wrap;" vertex="1" parent="sTpfeI2xTtXxhbUC93Zj-1">
          <mxGeometry y="30" width="140" height="30" as="geometry" />
        </mxCell>
        <mxCell id="sTpfeI2xTtXxhbUC93Zj-6" style="rounded=0;orthogonalLoop=1;jettySize=auto;html=1;exitX=1;exitY=0.5;exitDx=0;exitDy=0;endArrow=none;endFill=0;" edge="1" parent="sTpfeI2xTtXxhbUC93Zj-1" source="sTpfeI2xTtXxhbUC93Zj-3">
          <mxGeometry relative="1" as="geometry">
            <mxPoint x="280" y="130" as="targetPoint" />
          </mxGeometry>
        </mxCell>
        <mxCell id="sTpfeI2xTtXxhbUC93Zj-9" value="subject" style="edgeLabel;html=1;align=center;verticalAlign=middle;resizable=0;points=[];" vertex="1" connectable="0" parent="sTpfeI2xTtXxhbUC93Zj-6">
          <mxGeometry x="-0.669" y="2" relative="1" as="geometry">
            <mxPoint y="-17" as="offset" />
          </mxGeometry>
        </mxCell>
        <mxCell id="sTpfeI2xTtXxhbUC93Zj-3" value="source: Object&lt;span style=&quot;white-space: pre;&quot;&gt;&#x9;&lt;/span&gt;" style="text;html=1;strokeColor=none;fillColor=none;align=left;verticalAlign=middle;spacingLeft=4;spacingRight=4;overflow=hidden;rotatable=0;points=[[0,0.5],[1,0.5]];portConstraint=eastwest;whiteSpace=wrap;" vertex="1" parent="sTpfeI2xTtXxhbUC93Zj-1">
          <mxGeometry y="60" width="140" height="30" as="geometry" />
        </mxCell>
        <mxCell id="sTpfeI2xTtXxhbUC93Zj-4" value="wait: Alarm" style="text;html=1;strokeColor=none;fillColor=none;align=left;verticalAlign=middle;spacingLeft=4;spacingRight=4;overflow=hidden;rotatable=0;points=[[0,0.5],[1,0.5]];portConstraint=eastwest;whiteSpace=wrap;" vertex="1" parent="sTpfeI2xTtXxhbUC93Zj-1">
          <mxGeometry y="90" width="140" height="30" as="geometry" />
        </mxCell>
        <mxCell id="sTpfeI2xTtXxhbUC93Zj-5" value="capacity: Integer" style="text;html=1;strokeColor=none;fillColor=none;align=left;verticalAlign=middle;spacingLeft=4;spacingRight=4;overflow=hidden;rotatable=0;points=[[0,0.5],[1,0.5]];portConstraint=eastwest;whiteSpace=wrap;" vertex="1" parent="sTpfeI2xTtXxhbUC93Zj-1">
          <mxGeometry y="120" width="140" height="30" as="geometry" />
        </mxCell>
        <mxCell id="sTpfeI2xTtXxhbUC93Zj-8" value="&lt;b&gt;Observer&lt;/b&gt;" style="ellipse;whiteSpace=wrap;html=1;dashed=1;" vertex="1" parent="1">
          <mxGeometry x="280" y="110" width="120" height="50" as="geometry" />
        </mxCell>
        <mxCell id="sTpfeI2xTtXxhbUC93Zj-11" value="&lt;b&gt;SlidingBarIcon&lt;/b&gt;" style="swimlane;fontStyle=0;align=center;verticalAlign=top;childLayout=stackLayout;horizontal=1;startSize=30;horizontalStack=0;resizeParent=1;resizeParentMax=0;resizeLast=0;collapsible=0;marginBottom=0;html=1;whiteSpace=wrap;" vertex="1" parent="1">
          <mxGeometry x="520" y="40" width="140" height="120" as="geometry" />
        </mxCell>
        <mxCell id="sTpfeI2xTtXxhbUC93Zj-12" value="reading: Real" style="text;html=1;strokeColor=none;fillColor=none;align=left;verticalAlign=middle;spacingLeft=4;spacingRight=4;overflow=hidden;rotatable=0;points=[[0,0.5],[1,0.5]];portConstraint=eastwest;whiteSpace=wrap;" vertex="1" parent="sTpfeI2xTtXxhbUC93Zj-11">
          <mxGeometry y="30" width="140" height="30" as="geometry" />
        </mxCell>
        <mxCell id="sTpfeI2xTtXxhbUC93Zj-15" value="color: Color" style="text;html=1;strokeColor=none;fillColor=none;align=left;verticalAlign=middle;spacingLeft=4;spacingRight=4;overflow=hidden;rotatable=0;points=[[0,0.5],[1,0.5]];portConstraint=eastwest;whiteSpace=wrap;" vertex="1" parent="sTpfeI2xTtXxhbUC93Zj-11">
          <mxGeometry y="60" width="140" height="30" as="geometry" />
        </mxCell>
        <mxCell id="sTpfeI2xTtXxhbUC93Zj-16" value="range: Interval" style="text;html=1;strokeColor=none;fillColor=none;align=left;verticalAlign=middle;spacingLeft=4;spacingRight=4;overflow=hidden;rotatable=0;points=[[0,0.5],[1,0.5]];portConstraint=eastwest;whiteSpace=wrap;" vertex="1" parent="sTpfeI2xTtXxhbUC93Zj-11">
          <mxGeometry y="90" width="140" height="30" as="geometry" />
        </mxCell>
        <mxCell id="sTpfeI2xTtXxhbUC93Zj-18" style="edgeStyle=orthogonalEdgeStyle;rounded=0;orthogonalLoop=1;jettySize=auto;html=1;entryX=0.5;entryY=1;entryDx=0;entryDy=0;dashed=1;endArrow=none;endFill=0;" edge="1" parent="1" source="sTpfeI2xTtXxhbUC93Zj-17" target="sTpfeI2xTtXxhbUC93Zj-8">
          <mxGeometry relative="1" as="geometry" />
        </mxCell>
        <mxCell id="sTpfeI2xTtXxhbUC93Zj-17" value="observer.reading = length(subject.queue)&lt;br&gt;observer.range = (0..subject.caacity)" style="shape=note2;boundedLbl=1;whiteSpace=wrap;html=1;size=15;verticalAlign=middle;align=left;spacingLeft=4;" vertex="1" parent="1">
          <mxGeometry x="220" y="260" width="240" height="50" as="geometry" />
        </mxCell>
        <mxCell id="sTpfeI2xTtXxhbUC93Zj-19" style="rounded=0;orthogonalLoop=1;jettySize=auto;html=1;exitX=0;exitY=0.5;exitDx=0;exitDy=0;entryX=1;entryY=0.5;entryDx=0;entryDy=0;endArrow=none;endFill=0;" edge="1" parent="1" source="sTpfeI2xTtXxhbUC93Zj-15" target="sTpfeI2xTtXxhbUC93Zj-8">
          <mxGeometry relative="1" as="geometry" />
        </mxCell>
        <mxCell id="sTpfeI2xTtXxhbUC93Zj-20" value="observer" style="edgeLabel;html=1;align=center;verticalAlign=middle;resizable=0;points=[];" vertex="1" connectable="0" parent="sTpfeI2xTtXxhbUC93Zj-19">
          <mxGeometry x="-0.4973" y="1" relative="1" as="geometry">
            <mxPoint y="-16" as="offset" />
          </mxGeometry>
        </mxCell>
        <mxCell id="sTpfeI2xTtXxhbUC93Zj-21" value="Figure 11.51 Alternative notation for the parts of the Observer Collaboration." style="text;html=1;align=left;verticalAlign=middle;resizable=0;points=[];autosize=1;strokeColor=none;fillColor=none;fontStyle=1" vertex="1" parent="1">
          <mxGeometry y="310" width="460" height="30" as="geometry" />
        </mxCell>
      </root>
    </mxGraphModel>
  </diagram>
</mxfile>
